<svg xmlns="http://www.w3.org/2000/svg" viewBox="0 0 480 288" width="480" height="288" font-family="-apple-system,BlinkMacSystemFont,'Segoe UI',Arial,Helvetica,sans-serif">
<defs>
  <filter id="sh-p1" x="-15%" y="-15%" width="130%" height="140%">
    <feDropShadow dx="0" dy="3" stdDeviation="5.5" flood-color="#0f1e32" flood-opacity="0.16"/>
  </filter>
  <clipPath id="cl-p1"><rect x="10" y="6" width="460" height="270" rx="18"/></clipPath>
</defs>
<rect x="10" y="6" width="460" height="270" rx="18" fill="#FFFFFF" stroke="#E1E6EE" stroke-width="1.5" filter="url(#sh-p1)"/>
<g clip-path="url(#cl-p1)"><rect x="10" y="6" width="6" height="270" fill="#2196F3"/></g>
<rect x="359.8" y="22" width="88.2" height="20" rx="10" fill="#2EA043"/>
<text x="403.9" y="36" font-family="'SFMono-Regular',Consolas,'DejaVu Sans Mono','Courier New',monospace" font-size="11" font-weight="700" fill="#FFFFFF" text-anchor="middle" letter-spacing="0.5">COMPLETADO</text>
<text x="42" y="42" font-size="22" font-weight="700" fill="#1A2733">Hate Speech MLOps —</text>
<text x="42" y="69" font-size="22" font-weight="700" fill="#1A2733">Pipeline de clasificación</text>
<text x="42" y="98" font-size="13" font-style="italic" fill="#2196F3">Del EDA al modelo serializado</text>
<line x1="42" y1="110" x2="448" y2="110" stroke="#E1E6EE" stroke-width="1.2"/>
<text x="42" y="130" font-size="14" fill="#4A5866">Pipeline modular resistente a data leakage. Modelos LightGBM</text>
<text x="42" y="149" font-size="14" fill="#4A5866">optimizados con Optuna (ROC-AUC), auditados con SHAP y</text>
<text x="42" y="168" font-size="14" fill="#4A5866">serializados con Joblib para inferencia sobre datos crudos.</text>
<rect x="42.0" y="236" width="99.5" height="20" rx="6" fill="#E8F2FE" stroke="#CEE3FA" stroke-width="1"/>
<text x="91.8" y="250" font-family="'SFMono-Regular',Consolas,'DejaVu Sans Mono','Courier New',monospace" font-size="11" fill="#1565C0" text-anchor="middle">scikit-learn</text>
<rect x="148.5" y="236" width="73.0" height="20" rx="6" fill="#E8F2FE" stroke="#CEE3FA" stroke-width="1"/>
<text x="185.0" y="250" font-family="'SFMono-Regular',Consolas,'DejaVu Sans Mono','Courier New',monospace" font-size="11" fill="#1565C0" text-anchor="middle">LightGBM</text>
<rect x="228.5" y="236" width="59.8" height="20" rx="6" fill="#E8F2FE" stroke="#CEE3FA" stroke-width="1"/>
<text x="258.4" y="250" font-family="'SFMono-Regular',Consolas,'DejaVu Sans Mono','Courier New',monospace" font-size="11" fill="#1565C0" text-anchor="middle">Optuna</text>
<rect x="295.2" y="236" width="46.5" height="20" rx="6" fill="#E8F2FE" stroke="#CEE3FA" stroke-width="1"/>
<text x="318.5" y="250" font-family="'SFMono-Regular',Consolas,'DejaVu Sans Mono','Courier New',monospace" font-size="11" fill="#1565C0" text-anchor="middle">SHAP</text>
</svg>