<svg xmlns="http://www.w3.org/2000/svg" viewBox="0 0 480 288" width="480" height="288" font-family="-apple-system,BlinkMacSystemFont,'Segoe UI',Arial,Helvetica,sans-serif">
<defs>
  <filter id="sh-p7" x="-15%" y="-15%" width="130%" height="140%">
    <feDropShadow dx="0" dy="3" stdDeviation="5.5" flood-color="#0f1e32" flood-opacity="0.16"/>
  </filter>
  <clipPath id="cl-p7"><rect x="10" y="6" width="460" height="270" rx="18"/></clipPath>
</defs>
<rect x="10" y="6" width="460" height="270" rx="18" fill="#FFFFFF" stroke="#E1E6EE" stroke-width="1.5" filter="url(#sh-p7)"/>
<g clip-path="url(#cl-p7)"><rect x="10" y="6" width="6" height="270" fill="#2196F3"/></g>
<rect x="353.2" y="22" width="94.8" height="20" rx="10" fill="#D29922"/>
<text x="400.6" y="36" font-family="'SFMono-Regular',Consolas,'DejaVu Sans Mono','Courier New',monospace" font-size="11" font-weight="700" fill="#FFFFFF" text-anchor="middle" letter-spacing="0.5">IN PROGRESS</text>
<text x="42" y="42" font-size="22" font-weight="700" fill="#1A2733">E-Commerce Fraud —</text>
<text x="42" y="69" font-size="22" font-weight="700" fill="#1A2733">Anomaly Detection</text>
<text x="42" y="98" font-size="13" font-style="italic" fill="#2196F3">Z-score · Isolation Forest · LOF · PELT</text>
<line x1="42" y1="110" x2="448" y2="110" stroke="#E1E6EE" stroke-width="1.2"/>
<text x="42" y="130" font-size="14" fill="#4A5866">Three approaches on e-commerce transactions: point</text>
<text x="42" y="149" font-size="14" fill="#4A5866">(Z-score/IQR), contextual (Isolation Forest, LOF)</text>
<text x="42" y="168" font-size="14" fill="#4A5866">and collective with change-point detection (PELT).</text>
<rect x="42.0" y="236" width="125.6" height="20" rx="6" fill="#E8F2FE" stroke="#CEE3FA" stroke-width="1"/>
<text x="104.8" y="250" font-family="'SFMono-Regular',Consolas,'DejaVu Sans Mono','Courier New',monospace" font-size="11" fill="#1565C0" text-anchor="middle">Isolation Forest</text>
<rect x="174.6" y="236" width="72.8" height="20" rx="6" fill="#E8F2FE" stroke="#CEE3FA" stroke-width="1"/>
<text x="211.0" y="250" font-family="'SFMono-Regular',Consolas,'DejaVu Sans Mono','Courier New',monospace" font-size="11" fill="#1565C0" text-anchor="middle">ruptures</text>
<rect x="254.4" y="236" width="46.4" height="20" rx="6" fill="#E8F2FE" stroke="#CEE3FA" stroke-width="1"/>
<text x="277.6" y="250" font-family="'SFMono-Regular',Consolas,'DejaVu Sans Mono','Courier New',monospace" font-size="11" fill="#1565C0" text-anchor="middle">PELT</text>
</svg>
